<?xml version="1.0" encoding="UTF-8" standalone="no"?>
<!-- Created with Inkscape (http://www.inkscape.org/) -->

<svg
   width="255.16425"
   height="128.3885"
   viewBox="0 0 255.16425 128.3885"
   version="1.1"
   id="svg1"
   xml:space="preserve"
   xmlns="http://www.w3.org/2000/svg"
   xmlns:svg="http://www.w3.org/2000/svg"><defs
     id="defs1" /><g
     id="layer1"
     transform="translate(-14.78384,-24.461754)"><g
       id="g589"
       transform="translate(-615.25368,-12.471358)"><path
         d="m 640.3795,66.358579 1.72367,-3.016421 -0.98495,1.60055 z m 1.60055,0.92339 3.69358,-6.586868 3.75513,-5.78659 -1.66212,1.969902 -1.90833,3.139536 -3.81669,6.956218 -0.1231,0.307802 z m -1.47743,4.863202 h 0.0616 l 0.1231,-0.184679 h -0.0616 z m -0.55403,0.984957 -0.0615,0.184669 -1.53899,3.262659 0.61559,-1.169625 1.10808,-2.277703 z M 653.307,70.667743 v -0.738719 l -2.83174,0.492492 -5.66347,0.923379 -2.95486,0.430926 -0.0616,0.184671 1.90835,-0.307794 4.06293,-0.55403 4.67851,-0.307802 z m 3.44733,0.861832 v -0.36936 l -2.46238,0.307804 v 2.954857 l 0.49247,3.447329 0.6156,1.908336 0.24624,0.307802 0.36934,-0.800275 0.1231,-1.600552 0.18469,-2.893291 0.36934,-2.8933 z m 0.18468,-6.032838 v -0.800275 l 0.36936,-6.15594 0.67716,-5.417223 0.61558,-3.632019 0.0617,-0.861833 -1.47743,3.878237 -1.3543,5.848156 -1.04652,5.971272 -0.12309,1.29275 h 0.12309 z m -0.18468,4.801656 0.0616,-0.923398 -1.10807,0.184679 -1.41586,0.246235 v 0.738711 z m 2.09301,-4.924757 -0.0616,-5.601922 v -5.109439 l -0.49248,4.001368 -0.36935,6.032819 v 0.738719 z m 4.67853,-22.53078 -0.61559,2.277704 -0.80028,4.678513 -0.49246,5.540364 -0.0616,1.169626 0.36934,-2.647054 0.92339,-5.41724 0.55404,-3.939804 z m -14.52804,23.638838 0.80028,-0.184679 3.87824,-0.492474 0.1231,-1.600541 1.04652,-6.094385 1.35431,-5.848157 1.84679,-4.801647 1.47742,-3.816679 0.36937,-0.861833 -0.9234,1.046514 -1.84679,2.216126 h 0.0617 l -2.15458,2.585508 -2.77018,4.247606 -3.32422,5.78659 -3.50889,6.279065 -0.9234,1.785232 4.18606,-0.246246 z m 12.74281,-0.123085 1.16964,-0.0616 h -1.16964 z m -11.57317,0.861833 -0.24625,0.06159 -4.61696,0.923399 -1.84678,0.430907 -0.3078,0.615596 4.86321,-1.046503 5.54036,-0.923399 v -0.24624 h -0.36937 z m 5.41723,-0.246245 h -1.04652 v 0.123093 z m 3.3242,3.07798 V 69.498148 69.2519 69.06722 l -1.04649,0.18468 -0.1231,0.430927 v 0.492474 z m -23.88507,4.370729 v -0.861843 l 0.49248,-0.06161 0.24624,-0.615586 -3.26266,0.430907 v -0.06161 l -0.61559,0.123103 -1.60055,0.184681 -0.24623,-0.984936 0.92338,-0.307804 3.13953,-0.861842 2.5855,-0.55403 0.24625,-0.615596 -0.67716,0.18469 -0.24624,-0.984964 1.47743,-0.307803 0.0615,-0.123094 -0.9234,0.123094 -1.23118,0.184688 -0.73872,0.246236 -0.24624,-0.861831 0.73871,-0.246247 1.35433,-0.184669 1.53897,-0.184679 2.03147,-4.062936 3.69356,-6.340623 3.75513,-5.663476 3.57045,-4.186041 2.64707,-2.70861 0.92338,-0.430926 0.18469,0.246245 1.60055,-1.9699 2.64706,-2.770177 h 0.0616 l 0.67715,-0.554051 0.61559,0.800277 -0.61559,0.492483 h -0.0616 l -1.78522,2.093023 -2.46239,2.708612 -1.6621,2.093024 -1.16963,1.662109 1.10806,-1.231192 1.90835,-2.031469 2.52393,-3.016412 2.77017,-3.016404 0.80028,-0.9234 0.49249,-0.800275 0.80028,-0.738711 0.73869,0.615587 -0.55403,0.73872 -0.67715,0.800275 -0.61559,1.046513 -1.60056,3.07797 -1.16963,3.016414 0.55405,0.0616 v 2.400826 4.616956 5.663466 2.339262 l 0.3078,0.0616 -0.12309,1.477428 -0.0616,1.662119 h 0.0616 l 0.24624,-4.247606 0.43091,-5.848158 0.49247,-5.540364 0.80027,-4.801636 0.98496,-3.324206 0.80028,-0.615587 0.86183,0.430906 -0.0616,0.9234 -0.1231,2.33925 -0.55405,3.939813 -0.92338,5.417223 -0.98495,6.463754 -0.1231,4.863211 h 1.2312 l 2.52394,0.430908 0.98496,0.369357 v 0.984947 l -2.77018,1.231193 -2.03148,0.307801 v 1.169626 h 0.24625 l 0.12309,0.861833 h -0.36936 v 3.324217 l -0.1231,4.863201 -0.36936,2.954858 -0.18468,0.123092 0.1231,1.354317 0.55403,3.447329 -0.98495,0.123095 -0.55403,-3.447342 -0.0616,-1.108068 -0.55405,-0.184678 -0.30778,-1.969904 v 0.492472 l -0.0615,3.077981 -0.12309,1.846779 v 0.861834 h -0.86193 v -0.861834 l 0.12309,-1.846779 0.0616,-3.077981 0.18468,-3.385762 0.18468,-3.632021 0.0617,-2.647043 -1.10806,0.0616 -0.1231,4.493823 -0.43091,3.693573 -0.3078,0.492484 -0.0616,0.55404 -0.1231,1.723654 v 1.415864 0.984954 h -0.86182 v -0.984958 -1.415863 l 0.0616,-1.169625 -0.67716,0.123093 -0.67715,-0.677152 -0.73873,-2.154582 -0.49247,-3.570452 V 71.52952 l -0.73871,0.123095 -4.67851,0.307792 -4.06294,0.55405 -2.52393,0.369349 -1.47743,3.016413 -1.8468,3.324207 -1.23118,1.723676 -0.36935,-0.184679 -0.80027,2.031458 -0.73872,1.846786 -0.36936,-0.123092 0.36936,0.677153 -0.61559,0.369359 -0.86184,-0.430916 -0.1231,-1.046513 0.73872,-2.770177 1.41587,-3.878246 1.04652,-2.585497 -1.23121,2.893289 -2.03145,3.632012 -0.86184,-0.430908 0.86184,-1.9699 1.53898,-3.508908 0.43092,-1.046501 z m 75.96437,-31.149114 -0.73872,0.738719 -0.80027,1.108078 0.73871,0.492474 -0.43091,0.738711 -0.36936,0.492471 -0.86183,1.354306 v 0.06159 l -0.18467,0.246246 -0.1231,0.246238 -1.72368,3.385773 -1.96989,3.81669 -2.09302,4.370728 -1.84678,5.355666 -0.86184,2.708609 0.49248,-1.108058 2.21614,-5.171005 2.40083,-5.170995 2.33925,-4.616954 1.90834,-3.755134 1.35433,-2.831734 0.36934,-0.923399 0.0615,-0.492472 z m -18.77564,30.287271 0.49247,-0.923388 0.36936,-0.677163 -0.80028,-2.216139 -1.9699,-4.001359 -1.90833,-4.370731 -0.0617,-0.0616 -1.96989,-3.878238 -2.09303,-5.047882 -1.66209,-4.186049 -1.41588,-3.26265 -0.7387,-1.846779 -0.1231,1.538975 0.73871,3.016415 0.61559,2.277704 h 0.12309 l -0.0617,0.18468 0.55403,1.846779 1.6621,4.740099 2.09304,5.109438 2.33926,5.109418 2.40081,4.616966 2.03146,3.508896 1.53899,2.400818 1.04651,1.169626 0.0615,0.0616 v -0.18468 l -0.24624,-0.123094 0.12309,-0.307783 -0.36936,-1.354315 -1.29275,-3.077972 -0.12308,-0.246244 -0.49248,0.738708 z m 2.21614,-4.247596 -1.539,-2.770176 0.67717,1.723664 0.43093,0.92339 0.2462,0.492482 z m 1.90835,-0.55404 0.43092,0.738721 0.12309,-0.307803 1.60054,-3.447331 1.84678,-4.062927 2.09302,-4.186038 1.10807,-2.400828 -1.66211,3.016424 -2.40082,4.493831 -2.21613,4.370721 z m -1.04651,2.031467 -0.30781,0.492466 0.36935,0.800274 0.0617,0.554041 0.3078,-0.615598 0.12309,-0.369349 h -0.0617 z m 1.9699,1.169618 -0.61561,0.307813 -0.0617,0.123083 -0.67716,1.662099 v 0.0616 l 0.49247,0.923398 -0.86181,0.430907 0.4309,0.984965 v 0.184681 l 0.80028,-1.47743 1.10807,-4.062927 1.60054,-5.170995 -0.12308,0.184682 -1.60054,3.447329 -0.61561,1.600531 z m 15.26674,-32.995882 0.49248,0.861832 -0.55402,0.36937 -0.24625,1.046502 -0.1231,0.861834 0.6156,0.369349 -0.36937,1.415871 -0.55404,1.169636 -0.24624,3.755133 v 4.986324 l 0.0614,2.462364 0.3078,-2.216137 0.67716,-4.801636 0.55403,-3.755133 0.67714,-2.954856 0.36938,-1.415871 0.92338,0.123091 v 2.462385 l -0.36935,4.309164 -0.43092,5.109447 -0.18468,5.417223 -0.30781,5.540353 0.30781,-3.324207 0.24623,-4.247605 0.3078,-4.493842 0.61559,-5.786601 0.86184,-5.355665 0.67715,-2.647065 0.24625,-0.923389 0.98494,0.246237 -0.18467,0.861833 -0.4925,3.26266 -0.61557,4.370708 0.61557,-0.430906 0.86184,0.430906 0.12312,2.093036 v 4.124483 5.232561 5.848139 l 0.30777,6.032837 0.36936,6.217507 0.73874,5.540365 0.30777,3.324206 -0.98494,0.123094 -0.3078,-3.324229 -0.73872,-5.540343 -0.36934,-6.340631 -0.30783,-6.032837 v -5.848138 -5.232561 -4.124483 -1.292758 l -0.24621,0.615595 -0.49249,2.400828 -0.43091,3.44732 -0.0616,3.201103 v 5.109439 l 0.12309,5.294108 0.0615,3.878257 0.18466,1.600551 0.18468,3.939792 -0.18468,3.570453 h -0.98494 v -1.292747 -1.231182 l -0.0616,-1.662109 V 73.62257 l -0.12311,-2.277704 v -0.492474 l -0.30778,-2.523939 -0.0615,-4.493834 v -1.231201 l -0.18469,2.585508 -0.18468,4.986313 -0.1231,4.37073 -0.67714,3.63201 -0.98496,-0.123092 -0.0615,-1.169627 v -0.307804 l -0.92338,0.430906 -0.73872,-0.800274 -0.24625,-2.216128 v -3.63201 -4.740088 -0.861833 -0.369351 l -0.18466,-5.294127 -0.12309,-5.294099 v -4.986325 l 0.0615,-1.231193 -0.67715,1.47743 -1.90835,3.755122 -2.33924,4.616977 -2.40084,5.047871 -2.21613,5.170986 -1.72368,4.309172 -1.60053,3.693565 -1.41588,2.708611 0.18467,0.677172 -0.73873,0.677154 -0.86182,-0.246246 -1.29276,-1.415861 -1.66208,-2.523951 -2.03148,-3.508888 -2.4008,-4.740079 -2.33927,-5.109438 -2.09304,-5.109439 -1.72366,-4.801634 -0.12309,1.415871 -0.18468,3.508888 -0.1231,4.309161 v 4.801637 l 0.36936,4.986315 0.61561,4.186048 0.49247,3.016415 0.61559,2.8933 -0.98496,0.246235 -0.61559,-3.016412 -0.49248,-3.016414 -0.61558,-4.18605 -0.36936,-5.109437 v -4.801637 l 0.12308,-4.309161 0.18469,-3.632011 0.18468,-2.400827 0.24622,-1.046503 -0.61559,-2.216138 -0.36935,4.678513 -0.12308,3.755134 v 3.139535 l 0.0615,3.939802 0.43092,5.417244 0.12309,1.477427 v 0.307785 l 0.73871,5.047879 0.55404,4.432286 0.24625,2.093026 v 0.861832 l -0.98497,0.123093 -0.36934,-1.78523 h -0.80027 l -0.1231,-2.216148 -0.49248,-4.062917 -0.43092,-5.540355 -0.12308,-5.294118 v -1.292749 l -0.0616,0.615596 -0.30781,5.540355 v 5.725026 l 0.1231,4.801654 v 0.492472 2.40082 0.677152 1.108067 h -0.98492 V 83.225852 82.5487 80.14788 l -0.49246,-4.432285 -0.30781,-7.202463 v -7.325588 -6.402185 l 0.30781,-5.725024 0.49246,-4.92476 0.24625,-3.44733 0.24624,-0.861831 0.98494,0.246236 -0.24624,0.738718 -0.24623,3.447331 -0.49247,4.924758 -0.30779,5.601902 v 6.402185 2.277706 l 0.49245,-4.616954 0.24625,-4.062937 0.43091,-4.124475 0.24624,-2.70862 0.12309,-1.662106 0.0615,-0.677154 v -0.984956 l 0.0616,-0.307794 0.0615,-1.846788 h 0.1231 v -0.861822 -2.216148 l 0.80029,-2.462384 0.98494,0.123095 -0.0616,1.908333 -0.43091,3.077981 0.49247,-0.184678 0.67716,1.477426 -0.0617,-0.246227 -0.0616,-1.600551 0.80028,-0.123093 -0.0616,-1.415862 v -0.861842 l 0.98496,-0.123093 0.55403,2.770176 0.73871,3.508908 0.67715,2.585486 0.0616,0.123093 1.29274,2.893301 -0.30778,-0.923398 -0.55405,-3.632009 -0.18466,-1.723655 0.98494,-0.123096 0.18467,1.723656 0.55403,3.508887 1.29275,4.247605 1.23122,3.447341 0.67714,1.292747 1.10807,2.093025 2.40082,3.878246 1.41586,2.523943 0.49249,-1.108069 2.21613,-4.124493 1.66211,-2.954858 -0.3078,-0.184669 3.32423,-5.909715 3.01639,-4.801637 2.27772,-3.324226 1.78523,-2.52393 1.29274,-1.415862 0.12309,0.123095 0.30779,-1.354327 z m 0.24624,37.612857 v -1.538996 -2.770166 -3.139548 l 0.0614,-5.047871 0.30781,-5.540354 0.18468,-5.417233 0.36935,-4.801645 -0.12309,1.046523 -0.67715,4.801633 -0.86183,5.971272 -0.1847,4.616957 0.36934,4.555408 0.36938,4.124473 0.12309,2.093025 z m 18.96032,-14.404926 0.0614,-0.861832 -0.0614,0.369358 z m 3.44732,-16.128591 h -0.0616 v 0.430925 z m -0.24623,15.636117 4.00135,-1.538985 4.98632,-2.523952 4.80166,-2.523929 4.24759,-2.093015 2.46238,-1.723675 0.43093,-1.169626 -0.80027,-0.9234 -2.33929,-1.600551 -3.69356,-1.292739 -4.37074,-0.738718 h -4.92474 l -3.38577,0.36937 -0.36937,2.954856 -0.55402,5.848138 z m -1.9699,16.621065 0.0614,-1.66211 h -0.12309 v 0.369351 l -0.0616,1.354306 z m 0.92338,-16.190148 0.0616,-0.55403 0.12311,-1.969902 -0.12311,0.92338 z m 22.71545,-11.326946 0.0615,-0.0616 0.92339,-1.662107 -0.30777,-0.861833 -1.60055,-1.477419 -2.7702,-1.292759 -3.50889,-0.738719 -4.37069,-0.123093 4.24758,0.738699 3.9398,1.415882 2.58551,1.723666 1.04651,1.538984 z m -6.70998,11.203823 2.77018,0.36936 -0.30779,-0.123084 -1.60056,-0.246246 z m 7.26401,6.402186 -2.03146,2.277705 2.33926,-1.169624 0.12309,-0.677153 z m -4.30916,4.18606 -1.78523,1.477409 -4.98632,2.523951 -0.18465,0.123094 4.2476,-1.231203 4.0629,-1.723654 3.32422,-1.908346 1.78522,-2.216137 v -2.339272 l -0.80027,-1.477428 -0.18469,-0.123094 -0.12309,-0.0616 -0.49246,1.908355 0.86184,1.046503 -0.36938,1.538995 -2.89329,1.538986 z m -11.81943,3.939794 -0.18466,0.123093 -3.3858,1.723654 1.90835,-0.307781 1.35432,-0.246247 4.98632,-2.093026 3.75514,-1.908334 -3.75514,1.292749 z m -13.0506,4.863202 -1.53897,0.738709 1.53897,-0.36935 z m -4.61697,1.354305 1.66211,-0.984946 -2.21613,0.615597 -2.64707,0.923397 1.04651,0.06161 2.21614,-0.492494 z m 31.33378,-15.574552 -0.92338,1.169626 -3.44734,2.647073 -4.37074,2.89329 -0.36934,0.184671 5.10945,-1.785211 1.66211,-0.55404 2.03146,-1.723665 1.90832,-2.093025 -1.4774,-0.738719 z m -18.16005,-2.093015 h -1.60053 -0.24624 v 0.18468 h 0.67714 z m 3.81669,0 -1.47743,0.615586 -3.38576,0.55404 h -0.86184 l -0.18469,2.33926 -0.36934,6.094395 -0.12311,3.26265 5.10945,-1.846779 1.60056,-0.492483 4.80164,-2.585497 4.24759,-2.893301 3.32422,-2.52394 0.67716,-0.738719 -2.58551,-0.738699 -4.92476,-0.738709 -5.60191,-0.307804 z m -9.29546,15.389872 v -0.0615 l -1.47745,0.307793 -0.55403,0.18468 -0.0616,0.0616 v 0.492473 l 0.67715,-0.246227 z m 25.23936,-15.820788 -0.43089,1.169626 -0.49249,0.554038 1.47743,0.738711 0.49248,-1.908335 z m 2.5855,-17.051991 -0.0614,0.861844 0.1231,-0.677153 z m -28.6867,9.418613 -0.0616,0.738709 v 5.601911 0.06159 l 0.36936,-0.123093 v -0.800306 l 0.55404,-7.387143 1.04652,-5.909715 0.61558,-2.462364 -1.23117,0.430905 -0.3078,1.723675 -0.67717,5.601912 z m 1.60052,-11.388504 0.12311,-0.06159 1.16962,-0.307793 0.0615,-0.18468 0.36936,-0.984956 -1.47743,0.307804 h -0.12308 v 0.615585 z m -2.46236,22.715439 -0.18468,4.247625 -0.18468,5.2941 v 1.9699 l 0.36936,-0.123093 1.60053,-0.615606 -0.12309,-1.354306 h -0.80027 l -0.12309,-0.861822 -0.0616,-3.26266 -0.30779,-4.370719 -0.0616,-0.800275 z m -0.3078,15.451438 0.98496,-0.18468 2.77018,-0.800275 v -0.307784 l 0.0615,-1.169646 -0.67715,0.18469 v 0.36936 h -0.98495 l -1.41589,0.430906 -0.67716,0.18469 h -0.12308 z m 19.14499,-41.92201 4.00138,0.369359 3.20109,1.046503 2.33927,1.600552 0.12308,0.18468 0.67716,0.307793 1.41586,2.15458 -0.43091,2.339263 -2.15457,2.954855 0.49246,-0.430905 2.70862,-3.324227 1.47744,-2.708609 0.18466,-1.662109 -0.92338,-1.600532 -3.5089,-1.169646 -5.41722,-0.430907 z m 8.00273,10.342001 -2.33926,1.538985 -5.47878,3.07796 -6.77155,3.878254 -0.18466,0.123095 h 0.0616 l 0.67716,-0.123095 5.35564,-2.400825 4.98633,-2.77017 3.44735,-2.954854 z m 1.72369,-4.74009 -0.80028,-1.662099 -2.5855,-1.046522 -0.92339,-0.123092 2.7086,1.231202 z m -21.05336,-3.878247 h -0.3078 v 0.800276 l 1.66212,-0.246234 4.18603,-0.923401 6.77156,-0.06151 4.12448,0.492483 -1.35431,-0.430926 -3.9398,-0.36935 h -4.00138 l -2.46236,0.18469 -4.5554,1.108059 z m 5.72505,19.514365 -1.41589,0.123093 -3.44734,0.615598 -0.80025,0.246225 h 3.32421 L 742.2604,63.2806 Z m 2.5855,-0.246246 -2.52396,1.292748 -0.0616,0.06151 3.75515,0.18468 5.04786,0.73872 3.01642,0.923388 0.61559,-0.73871 0.43092,-1.108078 -3.01642,-0.861832 -3.50888,-0.492473 z m -0.36937,16.190158 2.83173,-1.046523 5.04789,-2.093015 4.06291,-2.33927 3.2011,-1.969901 1.41587,-1.785234 v -1.169623 l -1.04651,1.354315 -2.15459,2.585507 -3.44733,2.031458 -4.18604,1.846778 -5.171,1.415864 -4.30917,0.861842 -0.36934,0.184679 -5.60191,1.723655 -1.23122,0.36937 -0.0616,1.477428 0.73873,-0.246246 4.2476,-1.415872 3.63201,-1.169616 z m -21.54583,-30.718197 -0.61558,-0.73872 1.10806,-1.046502 2.03147,-1.231192 2.70861,-1.108069 3.3242,-0.800276 2.09304,-0.36935 0.0616,-0.246244 0.43093,0.184688 0.98494,-0.184688 v -0.554032 l 0.12309,-1.046511 h 0.98497 l 0.0616,1.415862 3.13952,-0.430908 1.72367,-0.123092 3.57046,-0.861833 7.38712,-0.677162 5.66348,0.430925 3.87823,1.415872 1.29276,2.093025 -0.18468,2.154581 -1.60055,2.954858 -2.83173,3.570442 -3.75513,3.262651 -3.69357,2.831734 -1.41587,0.861832 h 1.2312 l 3.38576,0.615597 2.09302,1.415871 v 0.492474 l 1.3543,0.800266 0.1847,0.492491 0.98494,0.738711 0.3078,0.492472 1.78522,1.415872 1.29276,1.846777 v 1.785234 l -1.78523,2.154581 -3.3242,2.093024 -4.06295,2.339261 -5.17098,2.093016 -2.77018,1.046512 v 0.0616 h -0.1231 l -2.95484,1.169635 -6.03285,1.908336 -5.41725,1.662117 -4.80163,1.046503 -0.24624,-0.984944 0.3078,-0.0616 -0.0616,-0.307802 2.15458,-0.430907 V 82.91813 l -1.96989,0.800277 h -1.90834 l -2.95487,0.615596 -3.26264,-0.307795 -0.12311,-0.923399 1.47743,-0.554029 3.26266,-1.169635 4.61696,-1.231194 0.80027,-0.123091 v -2.154572 l 0.18469,-5.294109 0.30778,-6.340631 v -0.06161 l -0.24623,0.06161 -0.9234,-0.307794 -0.18468,0.0616 -1.35431,0.492473 -0.12308,-0.430917 -3.26266,0.246228 -0.1231,-0.984937 2.33927,-0.18468 3.38577,-0.738719 0.61561,-0.307802 0.24622,-4.062928 0.36938,-3.201093 0.30779,-3.44733 0.36937,-3.44733 0.49246,-2.33926 -3.07798,1.108078 -5.41724,3.201085 -0.36936,0.307801 -0.7387,1.354306 -0.86183,-0.492474 0.4309,-0.738708 -0.30779,-0.492483 1.29274,-0.73872 1.41589,-1.292747 0.36935,-0.184681 0.30781,-0.307792 1.9699,-1.292739 2.89328,-1.169646 2.40081,-0.861823 0.18468,-1.169635 V 44.6282 l -2.15457,0.554047 -2.46237,0.984937 -1.90834,1.108079 z m 33.3037,5.232562 -3.38578,2.708609 -0.0616,0.0616 h -0.0615 l -5.29412,3.201103 -0.12309,-0.184679 -1.90835,0.861833 0.6156,-0.123095 h 1.60055 l 2.58549,-1.723674 3.69357,-2.708611 z m 18.59101,-9.357045 -0.36936,1.477429 0.67715,-0.06159 0.24624,-1.477429 z m -0.67715,2.585497 -0.18469,0.677153 -0.55405,2.954858 v 0.677152 5.786591 0.615607 l 0.24627,-1.600553 0.73869,-4.18604 0.1847,-1.169644 0.43091,-3.939793 z m -1.90835,13.850888 -0.0616,0.984956 0.24625,-0.0616 v -0.923398 z m -0.18468,2.52394 0.36936,-0.123093 v -0.430916 l -0.3078,0.0616 z m -0.1231,7.510256 0.18468,-3.07798 0.36935,-3.26265 v -0.06161 l -0.49246,0.06161 -0.0614,0.615596 z m 4.49385,-29.425438 -0.3078,0.0615 -2.03146,0.246246 -0.1231,1.169626 h 0.1231 l 0.36936,-0.0616 0.49246,-0.923399 0.80028,0.430926 v -0.184674 l 0.49248,0.123086 0.12309,-0.615587 z m -2.46239,19.144994 -0.18466,0.923401 0.24623,-0.0616 v -0.923375 z m -0.30777,2.216148 0.36934,-0.123092 v -0.246246 l -0.36934,0.123093 z m -0.1847,1.47743 v 0.246236 l 0.49247,6.34063 0.18469,1.477429 V 67.405123 L 774.333,65.743014 V 64.01934 Z m -0.80026,12.619704 1.04651,-0.123094 -0.73872,-5.7866 -0.0615,-0.492463 -0.1847,3.44732 z m -0.0616,1.846779 1.29274,-0.246237 -0.0616,-0.492484 -1.23119,0.369372 z m -0.0615,1.969891 0.18467,-0.0616 1.29275,-0.246237 v -0.554028 l -0.0615,-0.369369 -1.41588,0.246245 z m 2.64707,-19.514346 h 0.0616 v -0.861832 h -0.0616 v 0.123093 z m -0.0616,2.831736 v 3.447329 0.123093 l 0.36936,4.924759 0.61561,3.878237 0.0615,-0.06159 -0.43091,-5.047872 -0.43091,-7.26402 z m 19.576,-23.207933 h -0.67717 -5.84815 l -6.15594,0.123096 -4.49386,0.430915 -0.12309,1.046512 h 0.24624 0.0616 l 2.03145,-0.246237 6.27908,-0.615596 5.35569,-0.369359 z m -8.92613,18.283183 -1.78524,0.123094 -5.72504,0.55404 -2.03145,0.369349 v 0.923399 l 3.20109,-0.430926 0.86185,-0.123094 2.4008,-0.73871 z m 5.97126,16.128571 -2.46238,0.0616 -4.61696,0.554039 3.81669,-0.307794 z m -16.5595,2.400828 v 0.615597 h 0.24624 l -0.1231,-0.615597 z m -5.10943,1.354305 1.10806,-0.0616 v -0.184676 z m 18.34471,-0.923397 0.80027,-0.123085 -5.9097,0.246238 -5.9097,0.738718 v 0.246236 l 0.12309,0.55404 -0.98494,0.246225 -0.1231,-0.677152 v -0.246235 l -1.16962,0.184688 v 0.984936 l 1.9699,-0.369348 5.54036,-0.92339 z m -10.0342,-33.426791 -0.98493,0.246229 -0.1231,-0.677154 -0.12309,0.677154 -0.0616,0.554048 4.74007,-0.984966 6.46375,-1.046512 5.60193,-0.861822 2.8933,-0.677153 -1.23121,0.123094 -5.60191,0.492483 -6.03281,0.738719 -5.72505,0.615586 z m -11.63473,33.242109 0.12309,-0.984935 1.10807,0.184681 h 2.70861 l 0.43091,-0.0616 -0.18466,-5.047881 V 64.9427 64.573349 l -0.55404,0.246237 0.0615,0.430917 -1.10805,0.246236 -0.30781,-0.738719 -0.61559,0.123093 -1.8468,0.123093 -0.12309,-0.984954 1.84679,-0.123095 2.77018,-0.430925 0.0616,-0.800276 h -0.18467 V 62.78805 L 770.701,62.60337 h -0.92338 v -0.984946 h 0.98497 0.0614 l 0.67715,0.06151 0.0616,-0.923401 -2.2777,0.307804 h -1.41587 -0.98496 V 60.07938 h 0.98496 l 1.9699,-0.246236 1.78523,-0.307794 0.12309,-1.354304 0.67716,-5.971282 0.30781,-1.908334 0.12308,-3.262661 -2.70862,0.430908 -3.57044,0.861842 -2.15458,0.430926 -0.24624,-0.984965 2.15458,-0.430908 1.41587,-0.307803 v -0.738727 h 1.10808 l 2.83172,-0.307785 1.23119,-0.123092 v -0.184678 l 0.1231,-1.10807 h -0.0615 l -3.87824,0.677152 -2.21614,0.307793 -0.12309,-0.861832 -0.36936,0.06159 -0.1231,-0.984946 0.80028,-0.06159 2.89328,-0.307803 3.26266,-0.492473 0.1847,-1.231183 -2.1546,0.246228 -3.81669,0.861832 -2.2777,0.861833 -0.36936,-0.984956 2.40083,-0.861832 3.9398,-0.861823 2.40082,-0.307803 0.3078,-1.908335 0.73871,-0.984965 0.73872,0.615596 -0.6156,0.73872 -0.18468,1.477427 1.78523,-0.246247 0.61558,-0.06151 0.0614,-0.123093 0.55403,0.06159 4.80164,-0.430925 6.15596,-0.123094 h 5.84813 l 2.40084,0.06158 0.0614,-0.307782 3.632,0.369349 0.0614,0.184679 h 0.92338 l 1.47743,0.184679 0.1231,0.984947 -0.92338,0.18468 -1.60055,0.123095 0.12309,0.246245 -1.9699,0.677152 -4.18607,0.984936 -1.23118,0.18469 5.23257,-0.369369 4.2476,-0.246228 h 2.33926 v 0.984948 h -2.33926 l -4.12448,0.246235 -5.41725,0.369371 -5.84815,0.492471 -6.09439,0.554031 -3.93981,0.738709 -0.30777,2.585506 -0.43093,6.155952 v 3.755124 l 1.60056,-0.246237 4.80161,-0.492473 4.30917,-0.492484 3.81668,-0.123093 0.36936,0.123093 4.06294,-0.307792 4.49383,-0.184679 3.32422,-0.307795 0.12308,0.984948 -3.32421,0.307802 -4.61695,0.184669 -3.20111,0.246237 v 0.246259 l -1.60053,0.369352 -3.13954,0.492481 1.41587,-0.123093 4.06292,-0.369359 2.15458,-0.0616 v -0.123083 h 2.64707 v 0.984947 l -1.66211,0.0616 -3.01641,0.123093 -4.06293,0.36935 -4.49385,0.369361 -3.81669,0.492472 -2.09302,0.677153 -1.9699,0.677153 5.54036,-0.984946 5.17099,-0.677154 4.06293,-0.307803 1.47743,-0.123092 0.0616,-0.307784 2.03147,0.184671 v 0.984954 l -1.10806,0.06161 -2.33926,0.184678 -4.06295,0.307795 -5.171,0.677151 -5.60189,0.984957 h -0.18469 l 0.43093,7.325576 0.43091,4.924758 0.6156,-0.184679 5.90971,-0.9234 5.47879,-0.677153 4.43228,-0.123093 2.70861,0.307794 v 0.984954 l -1.16962,0.246227 -2.77017,0.430926 -3.75513,0.369349 -4.43228,0.369372 -4.67853,0.369349 -2.21615,0.184679 v 0.492474 l 5.90972,-0.738721 6.03282,-0.246225 h 4.92476 3.13954 1.72367 v 0.984946 l -1.23121,0.123093 -4.12446,0.36936 -5.10946,0.615596 -5.66346,0.861831 -5.29411,0.861824 0.80027,-0.0616 1.10807,-0.0616 0.80027,-0.123094 5.41723,-0.492483 5.04788,-0.184669 h 3.75514 2.33927 1.10804 l 0.0615,0.0616 0.86185,-0.0616 0.12309,0.984947 -2.09305,0.184678 -3.26263,0.307804 -4.24761,0.307793 -5.10944,0.36936 -5.41724,0.55403 -3.57045,0.307791 0.0615,2.216139 v 0.9234 h -0.98495 v -0.9234 l -0.0616,-2.093014 h -0.30781 -4.06292 l -0.80028,-0.18467 V 81.99473 h -0.43091 v -0.98495 l 1.04652,-0.06161 1.53898,-0.246234 -0.0615,-0.984947 -4.06294,0.246227 -1.29274,-0.18468 v -0.984947 l 2.09302,-0.492473 1.78523,-0.430928 h -1.90835 z m 46.47738,-30.533497 0.0615,-1.046522 -0.24625,0.123094 0.0615,0.615596 z m 1.47745,0.677152 h -0.0614 v 4.55541 l 0.0614,1.600532 V 52.38461 49.121951 Z m 1.6621,18.406287 v -0.0616 l -0.18467,0.0616 z m -0.24626,-2.031469 -0.0614,-0.492463 -0.36935,-4.124483 v 1.908336 l 0.30782,2.70861 z m 0.43095,-19.452798 -0.0615,-0.984936 -0.0616,0.123095 v 0.923387 z m 1.96989,22.530779 -0.12309,-0.677153 -0.24623,0.123094 0.0616,0.677152 z m -0.49247,-3.324207 -0.24626,-1.538985 0.12311,1.538985 z m -1.41587,-16.805744 -0.18468,0.06159 v 3.324207 6.340621 l 0.36934,3.878256 -0.0614,-4.247606 v -4.432282 -0.984956 l -0.12309,-3.63201 z m 0,-1.292748 -0.18468,0.123094 v 0.184669 l 0.18468,-0.06161 z m 0.92339,-3.878247 -0.0616,-0.492473 v 0.492473 z m 0.30779,4.740089 -0.18468,0.06159 0.0615,1.538986 v 2.70863 l 0.0614,1.846779 0.1847,2.154583 -0.12309,-5.909716 z m -0.0615,-1.415882 -0.18467,0.123094 v 0.123082 0.184691 l 0.18467,-0.0615 z m -0.0615,-2.093025 -0.18467,0.123094 v 0.984955 l 0.24623,-0.06159 V 43.76622 Z m 23.70039,13.23529 -1.23116,1.046524 0.55403,-0.307804 z m -5.72502,-14.035555 3.13954,0.800265 0.36935,0.246248 -0.80027,-0.738721 -3.63201,-1.662107 -3.87825,-0.430918 3.81668,1.29275 z m 6.77154,6.032828 0.18467,-0.677153 -1.16962,-2.277706 h -0.0615 L 839.34,44.38187 l 2.03148,1.785222 z m -6.83309,9.541723 -3.9398,2.216139 -4.61697,1.908344 -1.90835,0.677153 1.78522,-0.307793 1.60056,-0.554039 3.81669,-1.785223 z m 3.75512,-3.878256 0.36935,-0.554029 0.73872,-2.216148 v -1.723665 l -0.73872,-1.908345 -1.78523,-1.662108 -2.52393,-1.169626 -2.8933,-0.554029 -3.50888,-0.123094 -3.69355,0.123094 -3.50892,0.923398 -2.64705,0.984937 0.0615,2.093024 0.0615,3.201104 v 3.508887 4.432285 l 0.24623,4.247605 0.36936,-0.0616 0.92339,-0.369368 0.9234,-0.677153 4.43227,-2.462374 5.17099,-2.893291 5.84817,-3.755133 0.49247,0.861832 -5.84815,3.755134 -5.17098,2.8933 -1.04652,0.554029 1.04652,-0.307803 4.49382,-1.908345 4.06294,-2.277694 3.38577,-2.154592 z m 1.29273,-6.709971 0.80029,2.093015 v 1.6621 l 0.24626,-0.554032 -0.12311,-1.662107 z m -1.35429,-1.415871 1.16963,1.108068 -0.18468,-0.307803 z m -6.83309,-3.816691 -2.15459,-0.677152 -3.87825,-0.0616 -3.50887,0.0616 -3.13956,0.984937 -1.10807,0.369369 0.18469,0.923398 0.49245,-0.246246 3.63203,-0.800276 3.9398,-0.492473 4.00137,-0.0616 z m -12.43503,22.900129 0.30779,-0.123094 1.84679,-0.677151 -0.30779,0.0615 -1.04652,0.18468 z m 4.43229,-21.545823 -1.3543,0.18468 -3.50891,0.800276 -0.55403,0.246226 0.0614,0.430928 2.4624,-0.923401 z m 1.84678,-0.246246 2.70862,-0.0616 3.632,0.123092 3.01642,0.554041 2.64706,1.23119 -0.55403,-0.430925 -2.46237,-1.354306 -0.49248,-0.123092 -3.87826,-0.0616 -3.87824,0.0616 z m 9.1108,16.559507 1.47743,-1.292747 0.80027,-0.861834 -1.47743,1.169637 -3.38577,2.154579 -0.43091,0.184671 2.15458,-0.800277 z m 4.8632,-3.755132 0.55405,-0.492474 2.46235,-2.585487 0.12311,-0.123093 0.18467,-0.800276 -0.43091,-2.770178 -0.86183,2.831734 z m 3.44733,-8.679873 v 0.18466 l -0.0614,0.123094 0.36934,0.554039 0.36936,2.647065 0.18468,-0.36936 V 48.93724 Z m -15.20518,17.790691 -0.49248,-0.430926 -3.57045,1.477428 -4.00137,1.354305 -0.61559,0.184681 0.0615,0.615594 0.3078,0.123096 1.10808,0.123092 2.03145,-0.492473 2.40082,-1.108079 2.46239,-1.662097 z m 1.0465,-0.738721 0.80028,-0.55403 -0.12309,-0.123092 -0.98497,0.430906 z m 3.57047,4.062928 0.30779,0.307803 1.72367,1.354306 -0.12311,-0.184681 z m 10.89601,10.465114 -0.67716,-0.73871 -0.36935,-0.369369 -0.1231,-0.123085 -3.50889,-2.893301 -0.80026,-0.677152 2.40081,2.15458 1.90834,1.846789 z m -16.06704,-15.636119 0.30777,0.246246 0.36939,-0.123095 0.80025,-0.430915 -0.0615,-0.0616 -2.15458,0.492471 h -0.0615 l -2.40081,0.861843 -4.06293,1.600542 -1.04651,0.307794 0.0614,0.554049 0.36936,-0.184681 4.00135,-1.292749 3.44733,-1.415872 z m 6.27906,4.370727 -0.24624,-0.18467 -1.04651,-1.04652 -1.16962,-0.984958 -0.67718,-0.923379 -0.61559,0.430907 0.55405,0.369371 1.53896,1.231181 2.21616,1.723656 -0.49247,-0.554029 z M 813.97743,37.856569 h 0.98494 l -0.0615,1.600542 0.61559,0.06161 -0.12309,1.723665 0.36935,-0.861842 0.98496,0.246245 -0.0615,0.800278 v 1.108059 l 0.0615,-0.0615 v -0.307784 -1.477428 h 0.86183 v -1.354307 h 0.98494 l 0.24624,2.216138 0.43091,-0.246246 3.50891,-0.800266 h 0.36936 l 0.1231,-0.06159 3.81667,-0.677163 4.12448,-0.123083 4.12449,0.430917 3.87826,1.78522 3.13952,2.708632 0.18468,0.307784 0.80027,0.615595 0.24625,-2.400808 0.98494,0.123093 -0.36935,2.954857 0.55403,0.430928 1.16963,2.093015 v 2.093022 l -1.29275,2.462376 -0.49246,2.031468 -2.4624,2.647054 -4.00135,2.400827 -1.8468,0.738719 -0.98495,0.800256 -1.84679,1.47743 1.66212,1.354305 2.89328,2.523951 2.95488,2.831733 3.07797,2.708611 2.83174,2.523949 2.40082,2.03146 1.60053,1.046502 0.98496,0.677171 -0.61559,0.861825 -0.98496,-0.677152 -1.60055,-1.169627 -2.40082,-2.031467 -2.83174,-2.523942 -3.07796,-2.708621 -2.95485,-2.831736 -2.89331,-2.523938 -0.61558,-0.554041 0.61558,0.677164 2.95486,2.770167 4.00136,3.570455 2.8933,3.139536 1.90834,2.154581 1.23119,1.477428 0.43093,0.738718 -0.6156,0.738711 -0.86184,-0.430906 -0.55403,0.430906 -0.12308,-0.123095 -0.49249,0.369371 -0.80026,-0.492493 -0.36937,-0.246226 0.98495,1.169626 0.98495,0.923399 -0.7387,0.738708 -0.98496,-1.046511 -1.0465,-1.231183 -1.90835,-1.969901 -1.9699,-1.908355 -2.40085,-2.216147 -2.58547,-2.154582 -2.27771,-2.647053 -1.29275,-1.600553 v -0.0615 l -0.12308,-0.0616 1.04651,2.154583 3.01641,4.555398 4.80163,5.663477 -0.73871,0.615588 -4.80164,-5.66347 -3.13952,-4.678512 -1.35432,-2.8933 0.67715,-0.307802 0.0615,-0.123095 -0.7387,-0.677151 -2.52394,1.662118 -2.52395,1.231182 -2.40081,0.492481 -1.35432,-0.123093 0.12311,1.354307 0.18467,4.309171 -0.12309,1.108059 0.12309,2.585509 0.18468,2.216148 0.12309,1.046502 -0.98496,0.123094 -0.1231,-1.046513 -0.18468,-2.216138 -0.12309,-2.523951 v -0.554031 l -0.0615,-1.292747 -0.49247,-5.909715 -0.18468,-0.36936 -0.18468,0.0616 v 0.0616 l 0.55404,5.170996 -0.18468,4.124483 h -0.98496 l -0.0614,-1.169627 -0.18467,-2.031457 -0.61561,-4.616966 -0.12309,-0.984947 -0.1231,0.0616 0.49248,4.062935 0.0614,3.81669 -0.0614,1.046513 h -0.18468 l 0.0614,3.262659 v 2.831735 1.415862 l -0.98492,0.123094 -0.86185,-4.00136 -0.98497,-5.786591 0.98497,-0.123093 0.86185,4.986315 -0.0617,-4.00136 v -0.369359 l -0.98494,-6.833104 -0.24626,-1.723665 -0.67716,0.246237 -3.20108,0.615596 -0.30781,-0.9234 0.98497,-0.430906 2.40083,-1.046521 0.55404,-0.246228 -0.0616,-0.615586 -0.30779,0.0616 -0.1231,-0.984964 h 0.3078 l -0.36926,-2.831731 -0.67718,-7.264018 v -5.786592 -0.0616 l -0.49246,-0.246245 -0.55404,-1.10806 0.0615,-1.231192 1.10808,-1.046513 0.0614,-0.984946 0.18468,-3.755131 z m -84.02868,105.451401 1.72368,-3.01642 -0.98497,1.60056 z m 1.60055,0.9234 3.69356,-6.58687 3.75514,-5.78659 -1.6621,1.9699 -1.90833,3.13953 -3.81671,6.95623 -0.12309,0.3078 z m -1.47743,4.86319 h 0.0615 l 0.12309,-0.18467 h -0.0616 z m -0.55401,0.98496 -0.0616,0.18467 -1.539,3.26266 0.61558,-1.16963 1.1081,-2.2777 z m 13.35838,-2.46237 v -0.73873 l -2.83174,0.49249 -5.66346,0.92338 -2.95485,0.43093 -0.0615,0.18467 1.90836,-0.3078 4.06292,-0.55404 4.67853,-0.3078 z m 3.44736,0.86184 v -0.36938 l -2.46239,0.30781 v 2.95485 l 0.49247,3.44733 0.61561,1.90835 0.24623,0.3078 0.36936,-0.80028 0.12308,-1.60055 0.18469,-2.89328 0.36935,-2.8933 z m 0.18466,-6.03285 v -0.80027 l 0.36937,-6.15596 0.67715,-5.41723 0.61559,-3.63199 0.0616,-0.86185 -1.47742,3.87826 -1.35432,5.84814 -1.04651,5.97128 -0.12311,1.29274 h 0.12311 z m -0.18466,4.80165 0.0615,-0.9234 -1.10809,0.1847 -1.41586,0.24621 v 0.73872 z m 2.09301,-4.92477 -0.0616,-5.60191 v -5.10944 l -0.49245,4.00138 -0.36939,6.03282 v 0.73872 z m 4.67853,-22.53078 -0.61561,2.27772 -0.80027,4.67851 -0.49248,5.54036 -0.0615,1.16962 0.36935,-2.64706 0.92339,-5.41724 0.55404,-3.93979 z m -14.52808,23.63886 0.8003,-0.18466 3.87826,-0.4925 0.12308,-1.60055 1.0465,-6.09439 1.35431,-5.84815 1.8468,-4.80164 1.47743,-3.81669 0.36935,-0.86182 -0.9234,1.0465 -1.84677,2.21614 h 0.0616 l -2.15458,2.5855 -2.77019,4.24761 -3.3242,5.7866 -3.50891,6.27906 -0.92337,1.78524 4.18604,-0.24625 z m 12.74286,-0.1231 1.16961,-0.0615 h -1.16961 z m -11.5732,0.86183 -0.24624,0.0616 -4.61695,0.9234 -1.84679,0.43091 -0.30779,0.61559 4.8632,-1.0465 5.54034,-0.9234 v -0.24624 h -0.36935 z m 5.41722,-0.24623 h -1.0465 v 0.12309 z m 3.32425,3.07797 v -0.55402 -0.24625 -0.18469 l -1.04653,0.18469 -0.1231,0.43091 v 0.49249 z m -23.8851,4.37073 v -0.86183 l 0.49248,-0.0615 0.24622,-0.6156 -3.26265,0.43091 v -0.0616 l -0.6156,0.12309 -1.60055,0.18467 -0.24623,-0.98495 0.9234,-0.3078 3.13953,-0.86182 2.58552,-0.55404 0.24622,-0.61559 -0.67715,0.18468 -0.24622,-0.98495 1.47739,-0.3078 0.0615,-0.1231 -0.92338,0.1231 -1.23119,0.18468 -0.73872,0.24624 -0.24622,-0.86184 0.73871,-0.24623 1.3543,-0.18469 1.53899,-0.18466 2.03147,-4.06296 3.69356,-6.34061 3.75514,-5.66347 3.57045,-4.18605 2.64705,-2.70861 0.92339,-0.43093 0.18466,0.24625 1.60056,-1.9699 2.64705,-2.77019 h 0.0616 l 0.67713,-0.55404 0.61562,0.80028 -0.61562,0.49247 H 749.34 l -1.78522,2.09302 -2.46238,2.70863 -1.66209,2.09302 -1.16966,1.66212 1.10808,-1.23121 1.90834,-2.03145 2.52396,-3.01642 2.77016,-3.01642 0.8003,-0.9234 0.49245,-0.80028 0.80028,-0.73869 0.7387,0.61558 -0.55402,0.73872 -0.67714,0.80029 -0.61561,1.04649 -1.60056,3.07799 -1.16963,3.0164 0.55404,0.0616 v 2.40084 4.61694 5.66347 2.33927 l 0.3078,0.0616 -0.1231,1.47742 -0.0615,1.6621 h 0.0615 l 0.24625,-4.2476 0.43092,-5.84817 0.49248,-5.54034 0.80026,-4.80165 0.98494,-3.3242 0.80029,-0.61561 0.86183,0.43093 -0.0614,0.9234 -0.12309,2.33925 -0.55406,3.93981 -0.92339,5.41723 -0.98494,6.46373 -0.12309,4.86322 h 1.23117 l 2.52394,0.43091 0.98496,0.36936 v 0.98497 l -2.77018,1.23117 -2.03146,0.30781 v 1.16963 h 0.24622 l 0.12308,0.86183 h -0.36933 v 3.32419 l -0.1231,4.86321 -0.36937,2.95487 -0.18466,0.1231 0.12309,1.35431 0.55406,3.44734 -0.98497,0.12309 -0.55403,-3.44735 -0.0615,-1.10806 -0.55404,-0.18468 -0.3078,-1.96991 v 0.49248 l -0.0616,3.07798 -0.1231,1.84677 v 0.86184 h -0.86182 v -0.86184 l 0.12309,-1.84677 0.0615,-3.07798 0.18469,-3.38578 0.18467,-3.632 0.0615,-2.64705 -1.10807,0.0615 -0.1231,4.49383 -0.4309,3.69358 -0.30781,0.49246 -0.0615,0.55406 -0.12307,1.72366 v 1.41586 0.98496 h -0.86185 v -0.98496 -1.41586 l 0.0617,-1.16964 -0.67716,0.12309 -0.67715,-0.67713 -0.73873,-2.1546 -0.49247,-3.57045 v -3.01655 l -0.73872,0.12309 -4.67852,0.3078 -4.06293,0.55402 -2.52393,0.36936 -1.47744,3.01642 -1.84676,3.32422 -1.23121,1.72365 -0.36936,-0.18467 -0.80026,2.03146 -0.73872,1.84679 -0.36935,-0.12309 0.36935,0.67715 -0.6156,0.36935 -0.86184,-0.43089 -0.12308,-1.04654 0.73872,-2.77018 1.41585,-3.87824 1.04653,-2.58549 -1.23119,2.89329 -2.03147,3.632 -0.86182,-0.43091 0.86182,-1.9699 1.53899,-3.50889 0.43092,-1.04651 z m 40.01364,-27.27086 0.0615,-1.04651 -0.24624,0.1231 0.0616,0.61558 z m 1.47739,0.67716 h -0.0615 v 4.5554 l 0.0615,1.60055 v -1.60055 -3.26265 z m 1.66212,18.40628 v -0.0615 l -0.18468,0.0615 z m -0.24622,-2.03146 -0.0616,-0.49248 -0.36937,-4.12449 v 1.90836 l 0.30779,2.70861 z m 0.43092,-19.4528 -0.0616,-0.98494 -0.0615,0.12309 v 0.9234 z m 1.96989,22.53078 -0.1231,-0.67716 -0.24622,0.12311 0.0616,0.67715 z m -0.49247,-3.32422 -0.24625,-1.53898 0.12309,1.53898 z m -1.41588,-16.80574 -0.18468,0.0615 v 3.3242 6.34063 l 0.36937,3.87824 -0.0616,-4.24759 v -4.43229 -0.98496 l -0.1231,-3.63201 z m 0,-1.29275 -0.18468,0.12311 v 0.18468 l 0.18468,-0.0615 z m 0.92341,-3.87825 -0.0615,-0.49246 v 0.49246 z m 0.30779,4.74007 -0.18469,0.0616 0.0616,1.53899 v 2.70862 l 0.0615,1.8468 0.18468,2.15458 -0.12307,-5.90971 z m -0.0615,-1.41587 -0.18469,0.12309 v 0.12313 0.18466 l 0.18469,-0.0615 z m -0.0615,-2.09301 -0.18466,0.1231 v 0.98495 l 0.24623,-0.0616 v -0.49248 z m 23.70041,13.2353 -1.23119,1.04652 0.55403,-0.30781 z m -5.72502,-14.03558 3.13952,0.80028 0.36936,0.24625 -0.80028,-0.73873 -3.63201,-1.66211 -3.87823,-0.43089 3.81669,1.29273 z m 6.77154,6.03283 0.18468,-0.67714 -1.16964,-2.27769 h -0.0614 l -2.40081,-1.10808 2.03146,1.78523 z m -6.83312,9.54173 -3.93979,2.21617 -4.61698,1.90832 -1.90833,0.67716 1.78522,-0.30782 1.60054,-0.55402 3.81671,-1.78523 z m 3.75514,-3.87825 0.36937,-0.55404 0.7387,-2.21613 v -1.72367 l -0.7387,-1.90832 -1.78523,-1.66213 -2.52396,-1.16963 -2.89327,-0.55403 -3.50891,-0.12309 -3.69357,0.12309 -3.50888,0.92338 -2.64707,0.98497 0.0615,2.093 0.0614,3.2011 v 3.5089 4.43229 l 0.24626,4.24759 0.36933,-0.0615 0.92341,-0.36938 0.9234,-0.67714 4.43226,-2.46238 5.17101,-2.8933 5.84814,-3.75513 0.49248,0.86183 -5.84816,3.75513 -5.171,2.89331 -1.04651,0.55402 1.04651,-0.30778 4.49384,-1.90834 4.06294,-2.27771 3.38576,-2.15458 z m 1.29274,-6.70999 0.80028,2.09305 v 1.66209 l 0.24623,-0.55403 -0.12308,-1.66211 z m -1.35429,-1.41586 1.16962,1.10807 -0.18467,-0.3078 z m -6.83311,-3.81668 -2.15459,-0.67715 -3.87824,-0.0616 -3.50891,0.0616 -3.13952,0.98495 -1.10805,0.36934 0.18467,0.92341 0.49248,-0.24625 3.632,-0.80028 3.9398,-0.49246 4.00138,-0.0616 z m -12.43503,22.90012 0.30782,-0.12308 1.84678,-0.67715 -0.30782,0.0616 -1.04649,0.18467 z m 4.4323,-21.54582 -1.35431,0.18468 -3.50891,0.80028 -0.55403,0.24623 0.0616,0.43091 2.46237,-0.92338 z m 1.84678,-0.24625 2.70861,-0.0615 3.63202,0.12309 3.01642,0.55403 2.64705,1.23121 -0.55405,-0.43093 -2.46238,-1.35431 -0.49247,-0.12309 -3.87823,-0.0616 -3.87827,0.0616 z m 9.11079,16.55951 1.47744,-1.29275 0.80028,-0.86183 -1.47744,1.16964 -3.38576,2.15458 -0.43092,0.18467 2.15458,-0.80027 z m 4.86322,-3.75513 0.55403,-0.49247 2.46239,-2.58548 0.12307,-0.1231 0.1847,-0.80028 -0.43091,-2.77018 -0.86184,2.83174 z m 3.44733,-8.67989 v 0.18469 l -0.0616,0.12311 0.36936,0.55401 0.36938,2.64707 0.18468,-0.36937 v -1.60054 z m -15.20521,17.79071 -0.49247,-0.43092 -3.57044,1.47742 -4.00137,1.35431 -0.6156,0.18469 0.0615,0.61558 0.30781,0.12309 1.10807,0.12311 2.03145,-0.49248 2.40083,-1.10809 2.46237,-1.6621 z m 1.04653,-0.73872 0.80026,-0.55405 -0.12309,-0.12308 -0.98494,0.4309 z m 3.57045,4.06292 0.30777,0.30781 1.72369,1.35431 -0.12309,-0.18468 z m 10.89602,10.46511 -0.67714,-0.73869 -0.36938,-0.36937 -0.12308,-0.1231 -3.50889,-2.8933 -0.80027,-0.67716 2.40083,2.15461 1.90833,1.84678 z m -16.06703,-15.63612 0.30781,0.24626 0.36934,-0.1231 0.80028,-0.4309 -0.0616,-0.0615 -2.15458,0.49247 h -0.0616 l -2.40082,0.86184 -4.06291,1.60053 -1.04651,0.30781 0.0615,0.55402 0.36936,-0.18468 4.00137,-1.29275 3.44735,-1.41587 z m 6.27907,4.37075 -0.24623,-0.18469 -1.04652,-1.0465 -1.16962,-0.98497 -0.67715,-0.92337 -0.61562,0.43092 0.55406,0.36934 1.53898,1.23119 2.21613,1.72367 -0.49246,-0.55403 z m -20.62247,-29.85636 h 0.98493 l -0.0615,1.60056 0.6156,0.0615 -0.1231,1.72367 0.36935,-0.86183 0.98494,0.24626 -0.0615,0.80025 v 1.10808 l 0.0615,-0.0615 v -0.3078 -1.47743 h 0.86186 v -1.3543 h 0.98494 l 0.24624,2.21613 0.43094,-0.24624 3.50888,-0.80026 h 0.36935 l 0.12309,-0.0615 3.81669,-0.67716 4.12449,-0.12308 4.12447,0.43093 3.87826,1.78521 3.13954,2.70861 0.18466,0.3078 0.80028,0.61561 0.24623,-2.40084 0.98497,0.12309 -0.36938,2.95486 0.55405,0.43093 1.16961,2.09302 v 2.09303 l -1.29274,2.46236 -0.49246,2.03146 -2.46239,2.64708 -4.00137,2.40081 -1.84679,0.73871 -0.98494,0.80027 -1.84678,1.47743 1.6621,1.35431 2.8933,2.52394 2.95486,2.83173 3.07796,2.70864 2.83176,2.52392 2.40081,2.03147 1.60054,1.04652 0.98495,0.67714 -0.6156,0.86184 -0.98493,-0.67716 -1.60057,-1.16961 -2.4008,-2.03147 -2.83174,-2.52395 -3.07797,-2.70862 -2.95486,-2.83173 -2.89332,-2.52394 -0.61556,-0.55404 0.61556,0.67716 2.95487,2.77017 4.00136,3.57045 2.89331,3.13956 1.90835,2.15457 1.23118,1.47742 0.43091,0.73871 -0.61559,0.73872 -0.86183,-0.43092 -0.55404,0.43092 -0.1231,-0.12309 -0.49245,0.36937 -0.80029,-0.49249 -0.36934,-0.24623 0.98493,1.16963 0.98495,0.92338 -0.73871,0.73872 -0.98494,-1.04652 -1.04652,-1.23118 -1.90835,-1.96989 -1.96991,-1.90836 -2.40081,-2.21615 -2.58549,-2.15458 -2.2777,-2.64704 -1.29276,-1.60056 v -0.0614 l -0.12309,-0.0615 1.04652,2.15456 3.01642,4.55541 4.80162,5.66348 -0.7387,0.61558 -4.80164,-5.66346 -3.13955,-4.67852 -1.3543,-2.89329 0.67715,-0.30782 0.0616,-0.12308 -0.7387,-0.67715 -2.52396,1.6621 -2.52392,1.2312 -2.40084,0.49249 -1.3543,-0.1231 0.12309,1.35432 0.18469,4.30914 -0.1231,1.10808 0.1231,2.5855 0.18467,2.21614 0.12309,1.04649 -0.98496,0.1231 -0.12309,-1.04651 -0.18467,-2.21614 -0.1231,-2.52394 v -0.55401 l -0.0616,-1.29275 -0.49247,-5.90973 -0.18469,-0.36938 -0.18467,0.0615 v 0.0615 l 0.55405,5.171 -0.18469,4.12449 h -0.98496 l -0.0615,-1.16963 -0.18464,-2.03146 -0.61562,-4.61698 -0.1231,-0.98494 -0.12308,0.0615 0.49246,4.06296 0.0617,3.81666 -0.0617,1.04653 h -0.18466 l 0.0615,3.26264 v 2.83173 1.41588 l -0.98496,0.12309 -0.86182,-4.00135 -0.98497,-5.78661 0.98497,-0.12309 0.86182,4.98632 -0.0616,-4.00136 v -0.36937 l -0.98497,-6.8331 -0.24622,-1.72367 -0.67716,0.24625 -3.20109,0.61558 -0.30779,-0.92339 0.98494,-0.43092 2.40084,-1.04651 0.55402,-0.24622 -0.0616,-0.61561 -0.30781,0.0616 -0.12308,-0.98494 h 0.30779 l -0.36936,-2.83175 -0.67716,-7.26401 v -5.7866 -0.0616 l -0.49248,-0.24623 -0.55403,-1.10806 0.0615,-1.2312 1.10805,-1.04652 0.0616,-0.98494 0.1847,-3.75512 z m 60.02055,5.4788 -0.1847,0.49248 0.98496,0.0615 0.12307,-0.55404 h -0.55401 z m -2.83176,0.18467 -0.0614,0.24625 h 1.04651 l 0.67714,0.0616 0.12309,-0.43093 z m -0.98494,0.0615 -1.72368,0.0615 -0.98494,0.12309 H 821.18 Z m 3.07797,22.6539 -0.61559,-4.06293 v 1.90833 l 0.30778,8.43364 0.1847,1.66211 -0.0615,-0.86182 -0.0615,-7.07933 z m 0.43093,-16.4364 0.18467,-2.093 0.49247,-1.96992 h -0.80027 -0.0616 l -0.36935,3.20109 -0.0615,0.61559 z m -0.30783,7.63336 v -4.49381 l 0.24625,-2.33927 -0.24625,0.67716 -0.0615,4.18603 z m 1.47745,5.47882 -0.36936,-3.32422 v 1.53898 l 0.0615,5.10946 v 0.3078 l 0.4309,3.44733 -0.0614,-0.80029 -0.0615,-6.03282 z m 0.55404,-10.83447 0.0615,0.67717 0.12308,-2.70864 0.12309,-1.78523 0.1847,-0.98492 0.0614,-0.8003 0.24622,-0.67714 h -0.49247 l -0.18468,1.35429 -0.1231,0.8003 v 0.55402 z m 2.21613,26.90149 v 0.55405 h -0.36933 v 0.0616 l 0.12308,1.90834 v 0.12309 l 0.0615,1.96991 h -0.98498 l -0.0615,-1.90835 -0.18469,-0.4925 -0.49247,0.18469 -0.61559,-1.29274 -0.49247,-3.44733 -0.30781,-3.07798 -0.24624,-1.78521 v 1.53897 l 0.24624,5.7866 0.24624,4.5554 -0.0614,3.32421 h -0.98495 l -0.18469,-2.40081 -0.67714,-5.04788 -0.67716,-6.89467 -0.3078,-8.55677 v -8.37209 l 0.49249,-6.89467 0.36936,-3.07795 h -1.78534 l -0.18469,3.26264 v 5.97127 l 0.24624,8.00275 h -0.98496 l -0.24621,-8.00275 v -5.97127 l 0.18466,-3.26264 h -1.04651 l -3.9398,-0.0616 h -3.32422 l -1.84677,-0.30781 0.0615,-0.55403 -0.80027,-0.0615 h -1.35431 v -0.98494 h 1.35431 0.18468 l 4.00136,-0.43092 5.29411,-0.67715 3.632,-0.18468 h -2.70861 l -5.7866,0.49247 -4.49384,0.49248 h -2.21612 -1.10808 v -0.98495 l 3.81668,-0.1231 4.80164,-0.67716 5.97128,-0.67714 4.37073,-0.24624 h -4.00137 l -3.01643,0.0616 -4.80163,0.6156 h -4.49384 l -0.1231,-0.98495 2.46239,-0.3078 4.37072,-0.30779 h 2.46238 l 1.16963,-0.18468 7.07934,-0.67715 7.01778,-0.24623 h 6.34062 v 0.98493 h -6.34062 l -1.72367,0.0615 h 2.46238 l 5.47879,0.18469 3.20109,0.55405 -0.12307,0.98494 h -1.23119 -3.26265 -0.92339 l 3.07798,0.49247 -0.1231,0.98496 h -1.53899 -3.26266 l -4.80165,0.0616 -4.0629,0.24623 v 0.67717 l 1.84676,0.1231 5.60193,0.36935 4.61695,0.49248 3.07799,0.30778 v 0.98496 h -1.10807 l -2.58551,-0.1847 -3.93983,-0.12308 -4.74007,-0.0615 -1.3543,-0.0615 0.24625,1.23119 -0.18467,3.38577 -0.43094,5.10944 v 5.90971 5.35567 l 0.43094,5.35568 0.86183,4.80164 0.73872,3.69357 -0.98499,0.24624 z m 50.23258,-4.43228 v 0.1231 l -0.36935,1.72366 -1.04652,2.21615 -1.47744,2.15458 0.12311,-0.0615 2.46238,-1.16964 1.04652,-1.35431 0.49247,-1.29276 0.30781,-0.86183 -0.1231,-0.73871 -1.29275,-0.67715 z m -18.5294,-31.39534 -0.6156,0.12308 -1.78521,1.41588 2.03146,-1.41588 z m -2.5855,2.83173 -0.98495,1.10807 -0.12308,0.43093 v 0.61558 l 0.98494,-1.96989 z m -2.77017,11.14227 -0.73871,-2.21613 -0.0615,-2.2777 -0.1231,0.86182 v 1.84679 l 0.6156,1.29275 z m 19.32969,-11.45005 2.03145,2.09301 2.09303,2.03146 1.84678,1.84679 0.61559,0.80028 0.80028,0.49248 -0.49249,-0.98496 -1.53898,-1.84678 -1.72364,-1.78524 -2.21617,-1.6621 z m -3.32423,-1.72368 -0.49247,-0.30779 -1.78522,-0.49248 1.72365,0.98494 2.83174,1.96991 -1.84678,-1.84678 z m -12.31191,15.75924 -1.0465,-1.04651 -1.90833,-2.58551 0.36934,1.2312 1.72367,1.90834 z m 10.40357,3.50888 0.6156,0.18468 -0.43091,-0.24623 -4.00138,-2.2777 -3.69357,-2.03147 -3.01641,-2.33926 -1.8468,-2.46238 0.43092,1.60054 1.47744,2.15458 1.9699,1.90836 2.33928,1.35431 3.01641,1.16962 z m 1.16962,19.69904 -1.66209,-0.43091 -0.1231,-0.12309 h -1.41587 l -5.29412,-1.8468 -4.92476,-2.7086 -2.2777,-1.90834 0.43093,0.49245 1.84677,1.96992 2.40085,1.90836 2.40079,1.60053 3.13954,1.04651 h 3.38579 z m 11.88099,-3.75513 0.0615,-0.0614 0.61559,-2.33925 v -1.72365 l -0.73871,2.58547 -2.21613,2.33927 -0.67717,0.30782 -0.24625,0.36933 -1.41586,1.29275 1.16964,-0.24623 2.33925,-1.41585 z m 1.6621,-2.52393 0.24625,-0.55403 0.12308,-2.21615 -0.92338,-2.03147 -1.72365,-2.09301 -1.84681,-1.10808 1.10807,0.92341 0.43092,0.61558 0.0615,0.0616 1.66211,2.15457 0.86182,2.33926 z m -18.77564,-13.35843 1.0465,0.55406 2.33928,0.86182 2.77018,0.73872 2.46238,1.10808 2.21613,1.0465 1.72366,1.47742 1.41588,2.15459 0.0615,1.66211 -0.0615,0.55404 0.49249,0.3078 1.53896,0.92338 0.36938,1.35431 -0.1847,1.10808 0.61561,-2.21613 -0.18468,-2.46239 -1.10807,-1.60056 -2.27772,-2.03146 -2.70862,-1.78523 -3.0164,-1.41586 -3.38576,-1.29274 -0.30781,-0.12311 -2.03146,-0.49248 z m -3.50889,-1.0465 -1.60053,-0.61558 1.29275,0.92338 3.0164,1.96991 2.95485,1.6621 2.89331,1.66213 2.70862,1.53896 2.40082,1.539 2.09302,1.41587 0.80026,0.49246 -0.0615,-1.35429 -1.16964,-1.78523 -1.47742,-1.23119 -2.09303,-1.04651 -2.46237,-0.98495 -2.64706,-0.73874 -2.46237,-0.98494 -2.46239,-1.23118 z m -5.6019,-16.49794 0.67713,-0.9234 0.18469,-0.55403 1.47743,-2.093 -0.55402,0.43089 -1.66213,2.64706 z m 12.18876,-5.35568 0.49249,-0.0616 h 3.01641 l 2.8933,0.6156 1.29275,0.61558 -2.09303,-1.16963 -2.8933,-0.67714 -3.20108,-0.12309 h -0.67717 l 0.12309,0.0615 z m -0.30779,0.98497 -2.15459,0.24624 -0.18467,0.0615 2.46239,0.18468 1.04648,0.30783 z m -2.40084,-0.73872 1.16966,-0.12309 -2.09303,-0.73872 h -0.0615 l -2.64709,0.80028 -2.33926,1.66211 -0.24622,0.24623 0.18469,-0.0616 2.77016,-0.73872 h 0.49247 z m -9.84948,12.7428 v -1.90832 l 0.18467,-0.73873 -0.0615,-0.30781 v -1.84677 l -0.24626,0.67716 -0.24624,1.96989 0.30782,1.96991 z m 18.83719,29.11765 -0.12309,0.1231 0.73871,-0.0616 1.23119,-0.73872 0.12309,-0.12309 -1.41586,0.24622 -0.24625,0.24625 v 0.12309 z m -15.26676,0.18468 0.12311,0.12308 3.07795,1.96989 1.16964,0.36939 -2.09302,-1.04653 z m -5.10943,-4.74009 -1.23118,-1.41586 -0.67716,-1.23119 -0.12309,-0.24623 -0.24626,-0.30782 -0.80027,-1.41586 -0.55403,-1.10807 -0.3078,-0.49246 0.12308,0.92338 1.04653,1.90834 1.90834,2.52394 z m 16.92885,7.44871 0.43093,-0.24624 -0.43093,0.12311 h -3.13953 l -1.29274,-0.12311 0.49247,0.12311 2.8933,0.18465 z m 2.09303,-0.0616 2.95483,-0.49247 2.46241,-1.47743 1.16962,-1.10807 -0.55404,0.30781 -3.69356,0.92338 h -0.0615 l -1.23118,0.67715 -1.66212,0.61559 z m -9.35705,-5.47879 -2.58549,-2.21615 -2.21614,-2.52394 1.78523,2.21615 2.15458,1.9699 z m -14.52803,-10.77293 0.98493,0.12309 v 0.24626 l 0.0615,-0.0615 0.67717,0.67716 1.2312,1.84679 h 0.12309 v 0.12309 l 2.03149,2.2777 3.20108,2.64706 3.57045,2.03145 -1.10806,-0.92336 -2.64708,-3.26266 -2.09303,-3.50889 -1.35429,-2.64706 -0.55404,-2.15459 v -1.29275 h 0.98497 v 1.16962 l 0.12308,0.55404 0.1231,-0.18466 0.86182,0.36935 -0.24623,0.55401 0.3078,1.04653 1.66212,2.40082 2.21613,3.07797 2.52393,2.70862 2.64706,2.33927 2.40083,1.47743 0.49246,0.18467 0.67717,0.0616 -0.0615,0.18469 0.67715,0.30778 3.20109,0.0616 2.5855,-0.4925 0.67715,-0.67714 1.47743,-2.21614 0.92339,-2.09302 0.36935,-1.47742 0.0616,-0.61559 -1.16964,-0.73872 -2.09303,-1.41587 -2.4008,-1.53898 -2.70863,-1.53899 -2.8933,-1.66213 -2.95487,-1.66211 -3.13951,-1.96989 -3.20111,-2.5855 -2.58549,-2.2777 -0.98495,-1.41587 -0.73872,-1.53899 v -2.09303 l 0.3078,-2.89328 0.80029,-1.47743 0.0615,-1.23119 0.92337,-3.01642 1.78523,-2.8933 2.52395,-2.09302 2.52393,-1.10806 h 2.21615 l 0.24623,-0.0615 3.13955,-0.12309 3.3242,0.12309 3.13954,0.80024 2.52393,1.41589 1.96991,2.09303 0.12309,0.18466 0.18468,0.1231 1.60053,1.35432 1.29276,1.60053 0.86183,1.41588 0.43093,0.86183 0.36936,0.67716 -0.86183,0.49247 -0.36937,-0.67715 -0.43092,-0.86184 -0.86183,-1.29275 -0.80026,-1.04651 0.61558,1.53899 0.24623,0.73871 -0.98493,0.36935 -0.24625,-0.7387 -0.61559,-1.84678 -1.16962,-2.03148 -1.539,-0.92338 -2.27772,-1.04653 -2.64703,-0.61558 h -2.09302 l 0.18467,0.12308 1.9699,1.6621 2.33925,1.16965 2.46239,1.53899 2.21613,1.78522 1.8468,1.90836 1.66211,1.96989 1.10805,2.2777 -0.7387,0.67716 -0.98495,-0.49251 -0.55404,0.36939 -0.67717,-1.04653 -0.43091,-0.24622 -2.21614,-1.78524 -2.4008,-2.03145 -2.52396,-2.33927 -2.7086,-1.84679 -2.33926,-1.35431 -2.64706,-0.43092 h -2.09303 l -2.09301,0.80029 -0.36937,0.24624 -1.90833,2.40081 -1.35433,2.64707 -0.36935,1.47743 0.49247,2.46236 2.03146,2.52397 2.77019,2.21613 3.69356,2.03144 4.00137,2.27771 4.2476,2.46238 0.12309,0.0616 1.2312,0.49248 3.75513,1.84679 3.01641,1.84677 1.96991,2.33927 1.04652,2.40082 -0.1231,2.58551 -1.2312,2.5855 -0.98495,0.92338 -1.53897,2.15458 -2.21616,2.09301 -2.70861,1.60056 -3.2011,0.6156 -1.9699,0.0615 -0.49247,0.36937 h -2.58551 l -3.07797,-0.1231 -3.07797,-0.98496 -3.32421,-2.09301 -3.26266,-2.83174 -2.95486,-3.01642 -2.03147,-2.64704 -1.16961,-2.1546 -0.24624,-2.03147 z"
         id="text18"
         style="font-weight:500;font-size:64px;font-family:PWChalk;-inkscape-font-specification:'PWChalk Medium';white-space:pre;fill:#f6b149;stroke-width:3.6354"
         aria-label="AMBER ARTS" /><path
         style="fill:none;fill-opacity:1;stroke:#f6b149;stroke-width:1.09061;stroke-dasharray:none;stroke-opacity:1"
         d="m 677.05052,114.45981 c -7.13223,-27.38138 -47.30161,-8.41752 -37.23695,16.74412 3.11665,7.79163 10.42177,14.61437 14.49492,21.74238 2.76576,4.84007 3.49878,13.68836 3.49878,11.49598 0,-20.93358 -25.75865,-28.92502 -19.74307,-50.98214 4.28648,-15.717062 41.23553,-18.146534 41.23553,1.24959 0,0.0678 -3.98318,-5.49037 -8.99686,-7.9972 -5.60644,-2.80324 -23.06439,-7.352418 -26.99051,0.49983 -16.74734,33.49467 10.01387,32.82548 14.74482,56.48017"
         id="path585" /><path
         style="fill:none;fill-opacity:1;stroke:#f6b149;stroke-width:1.09061;stroke-dasharray:none;stroke-opacity:1"
         d="m 679.29973,113.95999 c 20.51795,-24.003388 43.00268,15.60396 23.99156,32.23868 -8.29973,7.26228 -22.40235,3.80876 -32.23867,7.49737 -2.73778,1.02666 -5.1111,1.79371 -6.74763,4.24853 -0.18074,0.27107 -3.21203,6.10573 -3.7487,5.74797 -8.23338,-5.48891 34.73161,-13.14106 37.73675,-15.24466 8.91416,-6.2399 19.87668,-31.04725 4.99825,-38.48648 -4.23659,-2.1183 -9.8365,-1.49947 -14.74481,-1.49947 -2.80032,0 -10.5476,3.24885 -7.74729,3.24885 7.82805,0 12.14596,-9.88388 20.99262,-3.24885 6.18743,4.64053 7.32107,11.9377 8.49703,18.99333 5.99877,35.99259 -41.53873,15.0255 -53.23131,35.48755"
         id="path586" /></g></g></svg>
