<?xml version="1.0" encoding="UTF-8" standalone="no"?>
<!-- Created with Inkscape (http://www.inkscape.org/) -->

<svg
   width="31.686026mm"
   height="31.680117mm"
   viewBox="0 0 31.686026 31.680117"
   version="1.1"
   id="svg1"
   xml:space="preserve"
   xmlns="http://www.w3.org/2000/svg"
   xmlns:svg="http://www.w3.org/2000/svg"><defs
     id="defs1" /><g
     id="layer1"
     transform="translate(-37.330434,-98.510121)"><path
       style="fill:#2f0f18;fill-opacity:1;stroke-width:0.264583"
       d="m 59.538983,121.15023 3.32846,0.14817 c 0,0 -0.49742,5.46364 -0.5715,6.00868 -0.0741,0.54505 -0.27253,1.61396 -1.76213,1.59015 -1.4896,-0.0238 -1.43933,-1.51606 -1.41552,-1.86267 0.0238,-0.3466 0.14817,-2.6326 0.14817,-2.6326 l -2.33363,0.5715 c 0,0 -0.0238,3.32846 -0.0503,3.79942 -0.0265,0.47095 -0.3466,1.46579 -1.73831,1.41552 -1.39171,-0.0503 -1.51606,-1.143 -1.51606,-1.41552 0,-0.27252 -0.17463,-3.82323 -0.17463,-3.82323 l -2.88131,-0.24871 c 0,0 0.0397,1.04246 0,1.76212 -0.0238,0.44715 -0.71967,1.19063 -1.96056,1.11655 -1.2409,-0.0741 -1.68805,-0.6694 -1.66423,-1.01865 0.0238,-0.3466 -0.10055,-3.15383 -0.10055,-3.15383 l -1.34143,0.14816 c 0,0 0.10054,3.07975 0.0741,3.32846 -0.0238,0.24871 -0.5715,1.143 -1.93675,1.11654 -1.36525,-0.0238 -1.70921,-0.64823 -1.73831,-0.94456 -0.0503,-0.52123 -0.24871,-3.50044 -0.32279,-4.24656 -0.0741,-0.74613 -0.10055,-3.62479 -0.10055,-3.62479 z"
       id="path1" /><path
       style="fill:#8f4247;fill-opacity:1;stroke-width:0.264583"
       d="m 41.809253,108.65925 c 0,0 -0.33602,-0.0741 -0.82021,0.11113 -0.48419,0.18521 -1.4896,1.82562 -1.97379,2.08491 -0.48419,0.26194 -1.23031,0.44715 -1.41552,0.59532 -0.46038,0.36777 -0.37307,2.34685 0.59531,2.9792 0.96837,0.63236 2.16165,0.82021 2.16165,0.82021 l 2.49502,-4.50585 z"
       id="path2" /><path
       style="fill:#522833;fill-opacity:1;stroke-width:0.264583"
       d="m 57.454063,98.639481 c 4.33917,-0.875771 5.95842,2.981859 5.95842,2.981859 0,0 3.13002,-1.19063 4.17248,2.38389 0.84666,2.90513 -2.3839,4.54554 -2.3839,4.54554 0,0 3.61421,0.32015 3.50044,4.15661 -0.0714,2.42093 -1.7145,3.02948 -1.7145,3.02948 0,0 1.51341,1.9685 0.22225,4.65666 -1.34144,2.794 -4.39473,2.64584 -4.39473,2.64584 0,0 -0.37571,2.51089 -3.83646,3.50043 -3.13002,0.89429 -4.69371,-0.4101 -4.69371,-0.4101 0,0 -1.30439,1.15358 -3.57452,0.52123 -1.87325,-0.52123 -2.16164,-2.12196 -2.16164,-2.12196 0,0 -2.159,1.03981 -4.50586,-0.0741 -2.19869,-1.04246 -2.45798,-3.27819 -2.45798,-3.27819 0,0 -3.05329,-0.96838 -3.13002,-4.953 -0.0688,-3.64861 2.19869,-5.02973 2.19869,-5.02973 0,0 -1.15358,-2.83104 1.45256,-4.953 2.13783,-1.74096 4.02167,-0.93133 4.02167,-0.93133 0,0 0.26194,-1.45257 1.89971,-1.82563 1.63777,-0.37306 2.49502,0.52123 2.49502,0.52123 0,0 0.1561,-0.97367 1.0795,-1.60073 1.04246,-0.70644 2.01083,-0.29898 2.01083,-0.29898 0,0 -0.0318,-2.682873 3.84175,-3.466039 z"
       id="path3" /><path
       style="fill:#8f4247;fill-opacity:1;stroke-width:0.264583"
       d="m 57.229163,99.459689 c 4.1963,-0.783167 5.588,2.984501 5.88434,3.016251 0.33602,0.037 2.44475,-1.60867 3.68829,1.56369 1.08215,2.7596 -2.794,4.28625 -2.68023,4.73339 0.0979,0.38894 3.91319,0.27781 3.81265,3.78619 -0.0635,2.21456 -1.81505,2.7649 -1.86267,3.10356 -0.037,0.26194 1.66687,1.85738 0.44715,4.29684 -1.16682,2.33362 -3.96611,2.12195 -4.39473,2.4077 -0.43127,0.2884 0.0503,1.96057 -2.7305,3.13002 -3.39461,1.42346 -4.66196,-0.33337 -5.04032,-0.39687 -0.48683,-0.082 -0.69585,1.34144 -3.22791,0.89429 -2.07963,-0.36777 -1.87854,-2.12725 -2.25954,-2.30981 -0.381,-0.18256 -1.61396,1.32292 -4.27038,0.24871 -2.08492,-0.84402 -2.11137,-2.70669 -2.33362,-3.01625 -0.29105,-0.40217 -2.80988,-1.16152 -2.94217,-4.80484 -0.13758,-3.7756 2.07169,-4.56406 2.12196,-4.86833 0.0503,-0.29898 -0.89429,-2.53206 1.19062,-4.27037 1.93675,-1.61396 3.42636,-0.49742 3.72534,-0.69586 0.13229,-0.0873 0.0503,-1.61396 1.86266,-2.01083 1.50284,-0.32809 2.48444,0.79375 2.64584,0.70644 0.35983,-0.19315 0.28045,-1.08215 1.12712,-1.6563 0.95515,-0.64822 1.81769,-0.13229 2.07698,-0.28045 0.22225,-0.1323 -0.45773,-2.90248 3.15912,-3.577171 z"
       id="path4" /><path
       style="fill:#e1a769;fill-opacity:1;stroke-width:0.264583"
       d="m 62.494373,106.3759 c 0,0 1.30704,0.85725 2.68288,1.06891 1.46579,0.22225 3.67506,-0.42333 3.82323,0.10055 0.14816,0.52387 -0.74613,1.88647 -2.18546,2.36008 -1.3335,0.43656 -1.88648,0.0238 -1.88648,0.0238 0,0 -0.28575,0.508 -0.11113,1.25413 0.17463,0.74612 0.71967,1.89706 0.60855,3.0427 -0.12436,1.26736 -1.1483,3.10092 -3.55071,3.60098 -2.97921,0.62177 -5.12498,-0.92868 -5.73617,-2.30981 -0.75671,-1.7145 -0.26194,-2.91835 -1.18004,-3.73592 -0.9181,-0.8202 -2.09815,-0.90752 -3.11679,-0.85725 -1.01865,0.0503 -2.01084,-0.508 -2.30981,-0.78316 -0.29898,-0.27252 -0.44715,-0.80698 -0.37307,-0.90752 0.0741,-0.10055 0.76994,-0.0503 1.48961,-0.39688 0.71966,-0.3466 1.93675,-1.04246 1.93675,-1.04246 0,0 0.85725,0.88106 2.12196,0.70644 1.26735,-0.17463 1.67745,-1.52665 1.67745,-1.52665 0,0 1.31498,2.01084 3.6248,1.48961 1.9685,-0.44715 2.48443,-2.08756 2.48443,-2.08756 z"
       id="path5" /><g
       id="g25"
       transform="translate(-8.5722093,13.452962)"><path
         style="fill:#522833;fill-opacity:1;stroke-width:0.264583"
         d="m 64.502272,96.867873 c 0.16669,0.687915 0.85196,0.926045 1.40494,0.658815 0.50006,-0.24077 0.74348,-0.841378 0.51329,-1.418169 -0.23019,-0.576792 -0.83608,-0.875771 -1.34938,-0.669396 -0.51329,0.206375 -0.71437,0.8255 -0.56885,1.42875 z"
         id="path6" /><path
         style="fill:#522833;fill-opacity:1;stroke-width:0.264583"
         d="m 70.751732,95.740748 c 0.16404,0.656166 0.76729,1.034521 1.26735,0.791104 0.44715,-0.216958 0.65882,-0.783167 0.43657,-1.3335 -0.22225,-0.550333 -0.74878,-0.777875 -1.2118,-0.592667 -0.46302,0.185209 -0.63764,0.560917 -0.49212,1.135063 z"
         id="path7" /><path
         style="fill:#522833;fill-opacity:1;stroke-width:0.264583"
         d="m 70.172292,100.21221 c 0,0 -1.67746,-0.820212 -1.86267,-0.322792 -0.1852,0.497412 0.49742,0.881062 0.76994,1.055682 0.27252,0.17463 0.89429,0.3228 0.89429,0.3228 0,0 -0.0503,0.96837 -0.54504,0.99218 -0.49741,0.0238 -0.85725,-0.65881 -1.18004,-0.30956 -0.32279,0.3466 0.12435,1.06892 0.89429,1.06892 0.76994,0 1.19063,-0.54504 1.19063,-0.54504 0,0 0.50535,0.29897 0.94456,0.1852 0.68262,-0.17462 0.79375,-0.94456 0.5715,-1.11654 -0.22225,-0.17198 -0.38365,0.37306 -0.76994,0.34661 -0.38364,-0.0238 -0.49741,-0.70644 -0.49741,-0.70644 0,0 0.44714,-0.21167 0.8202,-0.65881 0.21432,-0.25665 0.69057,-0.889002 0.44715,-1.143002 -0.39952,-0.41275 -1.67746,0.830792 -1.67746,0.830792 z"
         id="path8" /></g></g></svg>
